<?xml version="1.0" standalone="no"?>
<!DOCTYPE svg PUBLIC "-//W3C//DTD SVG 20010904//EN"
 "http://www.w3.org/TR/2001/REC-SVG-20010904/DTD/svg10.dtd">
<svg version="1.0" xmlns="http://www.w3.org/2000/svg"
 width="500.000000pt" height="500.000000pt" viewBox="0 0 500.000000 500.000000"
 preserveAspectRatio="xMidYMid meet">
<metadata>
Created by potrace 1.14, written by Peter Selinger 2001-2017
</metadata>
<g transform="translate(0.000000,500.000000) scale(0.100000,-0.100000)"
fill="#000000" stroke="none">
<path d="M2389 3668 c-63 -63 -152 -147 -198 -188 -46 -41 -89 -80 -95 -85
-102 -93 -375 -299 -560 -423 -177 -118 -180 -125 -36 -65 361 150 707 338
924 502 l80 60 40 -32 c213 -171 595 -382 961 -531 50 -20 98 -41 108 -47 11
-6 21 -8 23 -6 3 2 -37 30 -87 62 -124 79 -421 293 -486 350 -6 5 -31 26 -54
45 -118 96 -290 252 -392 356 l-115 116 -113 -114z"/>
<path d="M2068 2997 c-2 -7 -4 -59 -3 -117 l0 -105 195 -3 195 -2 -1 107 c0
60 -2 113 -2 120 -3 17 -379 16 -384 0z"/>
<path d="M2550 2889 l0 -119 195 0 195 0 0 120 0 119 -195 0 -195 -1 0 -119z"/>
<path d="M1200 2772 c0 -9 7 -62 14 -117 8 -55 18 -127 21 -160 4 -33 9 -63
11 -66 1 -3 4 -26 5 -51 l3 -46 200 -85 c111 -47 237 -101 281 -122 44 -20 76
-32 70 -27 -5 5 -94 64 -196 131 l-187 122 -17 87 c-9 48 -21 99 -26 115 -10
33 -9 33 44 6 325 -163 704 -499 905 -801 25 -38 47 -68 49 -68 7 0 -110 197
-140 235 -4 6 -31 42 -60 81 -231 316 -592 612 -923 759 -48 21 -54 22 -54 7z"/>
<path d="M3699 2739 c-416 -203 -780 -543 -1032 -965 -53 -88 -46 -90 13 -5
203 295 506 567 848 761 51 29 95 50 98 48 4 -4 -4 -44 -41 -205 -4 -16 -59
-58 -183 -139 -156 -102 -221 -148 -187 -132 66 31 335 148 425 183 52 21 98
41 102 44 4 3 9 31 13 61 3 30 8 62 10 70 2 8 6 40 10 70 3 30 12 100 19 155
8 55 13 101 12 102 -1 2 -50 -20 -107 -48z"/>
<path d="M2069 2665 c-7 -57 -2 -211 7 -219 7 -7 76 -11 195 -10 l184 0 1 117
c0 64 -2 118 -5 118 -3 1 -90 2 -193 3 -123 1 -188 -2 -189 -9z"/>
<path d="M2550 2558 c0 -65 3 -118 8 -119 10 -1 343 -1 365 0 16 1 17 12 15
118 l-3 118 -192 0 -193 0 0 -117z"/>
<path d="M617 2263 c-2 -4 18 -93 47 -196 l51 -189 30 7 c94 19 392 26 560 12
77 -6 72 4 -10 18 -16 3 -37 8 -45 10 -8 2 -42 7 -75 11 -33 3 -63 8 -66 10
-9 5 -149 17 -224 18 l-69 2 -23 73 c-12 40 -25 85 -28 101 l-6 27 53 -3 c290
-17 530 -69 808 -174 222 -84 489 -228 657 -355 107 -81 119 -89 77 -49 -376
352 -866 597 -1344 669 -62 10 -388 16 -393 8z"/>
<path d="M4070 2263 c-375 -51 -639 -142 -950 -325 -85 -50 -317 -210 -330
-227 -3 -4 -27 -25 -54 -46 -51 -41 -143 -127 -116 -108 8 5 44 33 80 60 163
126 430 275 647 359 271 106 592 180 808 185 102 2 95 7 75 -58 -10 -32 -23
-76 -29 -98 l-10 -40 -68 -1 c-74 -1 -234 -13 -243 -19 -3 -2 -26 -6 -50 -10
-70 -9 -204 -37 -210 -42 -3 -3 29 -2 70 2 161 16 440 11 573 -9 16 -3 30 0
32 7 15 49 95 356 95 364 0 10 -256 15 -320 6z"/>
<path d="M1028 1825 c-2 -2 -37 -6 -78 -9 -41 -4 -95 -9 -120 -12 -65 -8 -332
-54 -340 -59 -4 -2 -22 -7 -40 -10 -53 -9 -44 0 -222 -226 -15 -19 -70 -88
-123 -154 -52 -66 -95 -123 -95 -127 0 -4 37 6 82 23 71 25 317 91 388 103 14
2 63 11 110 20 47 9 108 19 135 22 28 3 61 7 75 9 200 27 856 27 1004 -1 11
-2 42 -6 70 -9 28 -3 62 -7 76 -10 14 -2 45 -7 70 -10 25 -3 90 -15 145 -26
55 -11 111 -22 125 -24 46 -9 65 -13 126 -29 85 -22 87 -20 24 14 -306 168
-568 251 -905 287 -89 10 -374 10 -485 0 -85 -7 -109 -10 -210 -27 -30 -5 -71
-12 -90 -15 -53 -9 -273 -66 -292 -77 -26 -13 -22 3 12 44 28 34 39 39 143 63
61 14 123 28 137 30 14 3 36 7 50 9 36 7 86 14 155 21 33 3 80 8 105 11 42 5
157 11 290 15 l55 1 -40 8 c-187 38 -499 24 -777 -35 -31 -6 -38 9 -10 23 27
14 187 51 297 68 127 20 399 27 535 14 58 -6 159 -22 225 -36 66 -13 131 -27
145 -30 70 -14 309 -103 412 -153 64 -31 112 -51 108 -45 -24 28 -174 127
-255 168 -167 84 -351 134 -595 162 -52 6 -417 13 -422 9z"/>
<path d="M3659 1826 c-2 -2 -40 -6 -84 -10 -181 -15 -362 -54 -492 -106 -138
-55 -304 -152 -353 -206 l-25 -28 48 28 c144 82 513 205 666 221 23 2 45 6 49
9 31 19 449 28 586 12 165 -19 382 -71 390 -93 5 -11 0 -13 -22 -9 -27 6 -40
9 -142 26 -143 24 -240 32 -380 31 -116 0 -297 -18 -304 -30 -2 -3 55 -6 127
-6 149 -1 287 -11 402 -29 22 -4 58 -9 80 -12 22 -2 47 -7 55 -9 8 -2 30 -7
49 -10 19 -3 37 -8 41 -10 4 -2 22 -7 41 -10 81 -14 124 -35 153 -77 25 -35
27 -40 10 -34 -78 31 -278 81 -364 92 -19 2 -46 6 -60 9 -14 3 -47 8 -75 11
-27 3 -63 8 -80 10 -62 9 -423 11 -495 2 -300 -35 -551 -104 -775 -214 -127
-63 -174 -88 -189 -105 -8 -9 -7 -10 4 -3 8 5 20 9 25 10 6 1 42 10 80 19 39
9 81 19 95 21 14 3 57 11 95 19 39 8 88 17 110 20 22 3 56 8 75 11 19 3 42 7
50 9 8 2 47 7 85 11 39 3 77 8 86 9 15 3 148 14 239 21 60 4 463 4 520 0 51
-4 180 -16 225 -22 17 -2 53 -6 80 -10 68 -8 295 -51 375 -70 79 -19 318 -92
333 -101 16 -9 0 14 -62 92 -31 38 -61 76 -68 85 -286 361 -237 315 -377 351
-51 14 -214 41 -331 55 -22 3 -56 7 -75 10 -41 6 -416 14 -421 10z"/>
</g>
</svg>
